<?xml version="1.0" encoding="UTF-8" standalone="no"?>
<!DOCTYPE svg PUBLIC "-//W3C//DTD SVG 1.1//EN" "http://www.w3.org/Graphics/SVG/1.1/DTD/svg11.dtd">
<svg xmlns="http://www.w3.org/2000/svg" version="1.1" viewBox="0.00 0.00 2184.00 960.00">
<path fill="#fffbfb" d="
  M 2021.20 168.37
  Q 2021.10 168.40 2019.74 169.48
  Q 1997.51 187.10 1976.83 206.50
  C 1969.21 213.65 1962.56 217.69 1953.32 220.91
  A 2.52 2.51 49.2 0 1 1951.34 220.76
  Q 1929.43 209.26 1919.22 186.42
  C 1916.80 181.02 1923.40 167.15 1926.19 163.48
  Q 1930.97 157.19 1949.22 137.99
  Q 1972.95 113.02 2003.22 98.66
  Q 2018.37 91.48 2033.87 94.94
  Q 2042.45 96.85 2051.97 103.15
  C 2073.84 117.60 2092.12 142.98 2092.40 170.14
  C 2092.54 184.51 2085.55 201.71 2078.67 214.24
  Q 2055.20 256.96 2024.56 295.03
  A 1.33 1.33 0.0 0 0 2025.65 297.19
  C 2071.62 295.20 2111.90 322.77 2124.94 367.25
  A 1.05 1.03 -31.3 0 1 2124.68 368.27
  L 2111.36 381.85
  A 0.62 0.62 0.0 0 1 2110.51 381.89
  Q 2099.49 372.34 2085.91 368.30
  C 2075.55 365.22 2064.21 363.38 2053.51 364.79
  C 2038.37 366.79 2022.96 369.63 2008.35 375.18
  Q 1987.64 383.03 1967.68 392.65
  C 1966.68 393.13 1965.92 393.36 1964.80 392.92
  Q 1926.73 377.62 1913.73 338.27
  C 1910.90 329.70 1914.42 326.33 1920.31 319.31
  Q 1978.59 249.84 2022.67 170.10
  Q 2024.22 167.30 2021.20 168.37
  Z"
/>
<path fill="#fffbfb" d="
  M 477.99 170.62
  A 9.72 9.72 0.0 0 1 491.73 170.57
  L 539.54 218.04
  A 21.07 21.07 0.0 0 1 539.64 247.84
  L 500.49 287.27
  A 21.07 21.07 0.0 0 1 470.69 287.37
  L 422.89 239.90
  A 9.72 9.72 0.0 0 1 422.84 226.15
  L 477.99 170.62
  Z"
/>
<path fill="#fffbfb" d="
  M 500.01 380.66
  C 440.80 375.88 392.49 344.62 369.23 288.75
  C 362.73 273.14 359.14 259.21 358.17 243.32
  Q 357.76 236.61 354.66 230.63
  A 0.97 0.97 0.0 0 1 354.83 229.51
  L 368.39 215.76
  A 0.63 0.63 0.0 0 1 369.23 215.70
  C 376.08 220.99 381.42 226.07 386.57 233.69
  C 403.43 258.64 429.41 284.69 458.61 294.14
  Q 470.41 297.96 484.99 297.38
  C 489.87 297.19 496.43 298.37 502.33 297.15
  Q 539.67 289.40 573.96 266.70
  Q 594.97 252.79 614.63 237.59
  A 1.78 1.77 -41.9 0 1 616.94 237.71
  C 622.07 242.57 627.34 247.14 631.68 252.73
  Q 652.41 279.49 671.04 307.56
  A 1.45 1.44 44.8 0 1 671.05 309.14
  C 668.41 313.26 665.55 317.11 661.70 320.40
  C 633.94 344.14 600.91 363.81 565.14 372.42
  C 543.71 377.57 521.36 382.38 500.01 380.66
  Z"
/>
<path fill="#fffbfb" d="
  M 430.90 581.54
  Q 430.89 581.56 430.82 581.79
  Q 430.75 582.04 430.84 582.29
  C 439.68 605.27 446.66 629.57 447.78 653.50
  Q 448.32 665.01 448.01 683.27
  Q 447.80 695.87 446.68 703.19
  C 442.99 727.54 432.41 751.72 417.86 771.14
  C 399.15 796.12 371.28 816.11 340.50 823.21
  C 333.39 824.85 325.33 825.08 317.75 825.49
  Q 313.41 825.72 305.13 828.10
  A 1.71 1.69 -45.3 0 1 304.19 828.11
  C 299.21 826.77 294.72 825.81 289.25 825.63
  C 280.45 825.34 272.77 824.63 264.16 821.92
  C 201.58 802.23 146.53 763.56 116.02 704.18
  Q 93.91 661.17 88.30 612.74
  C 85.61 589.51 82.12 566.73 83.16 543.24
  Q 83.20 542.54 84.26 541.29
  Q 89.08 535.63 94.40 529.68
  Q 95.43 528.53 96.59 529.54
  Q 105.34 537.21 110.31 547.86
  C 113.81 555.34 116.00 566.14 118.65 575.18
  C 130.73 616.35 153.22 659.78 186.98 687.37
  Q 231.98 724.14 292.00 712.97
  C 329.63 705.97 383.98 683.28 374.72 634.25
  C 368.33 600.46 342.82 575.92 307.15 578.00
  C 294.42 578.74 283.46 582.45 273.93 590.48
  A 1.52 1.52 0.0 0 1 271.98 590.49
  C 266.69 586.15 261.10 581.18 258.07 574.97
  Q 257.10 573.00 253.76 562.95
  Q 247.65 544.58 242.59 525.89
  C 238.39 510.39 233.69 497.66 227.50 483.98
  A 2.24 2.23 56.6 0 1 228.02 481.42
  L 240.00 470.31
  A 1.47 1.44 -56.4 0 1 241.47 470.00
  C 252.55 473.80 265.46 477.05 275.97 478.73
  C 305.94 483.55 347.38 474.16 356.43 440.01
  C 360.83 423.40 352.93 408.24 336.48 402.43
  C 322.20 397.39 307.82 397.78 292.39 401.04
  C 257.82 408.34 226.97 426.54 197.19 444.83
  A 1.83 1.81 -41.7 0 1 195.12 444.72
  C 188.26 439.40 183.12 433.46 178.55 425.42
  Q 161.25 394.91 146.67 363.38
  A 1.38 1.37 51.0 0 1 146.81 361.99
  C 155.10 350.73 164.27 344.12 177.23 335.58
  C 201.59 319.54 228.67 306.73 257.22 300.33
  C 266.47 298.25 278.12 297.19 288.55 295.41
  C 296.95 293.98 302.52 294.59 310.49 296.21
  Q 327.76 299.69 337.20 302.44
  Q 356.84 308.13 372.33 320.81
  C 390.01 335.28 405.94 354.83 413.96 376.41
  C 417.84 386.84 419.43 400.16 421.77 412.00
  Q 422.57 416.02 420.96 426.66
  Q 411.70 487.76 358.45 518.22
  Q 356.89 519.11 357.07 520.45
  Q 357.19 521.28 358.31 522.30
  Q 370.00 532.88 385.27 535.91
  C 393.81 537.60 401.21 535.70 408.86 531.04
  C 422.26 522.89 428.48 513.53 438.14 498.59
  Q 451.68 477.62 465.07 456.54
  C 481.68 430.40 501.49 404.27 528.52 388.45
  C 556.33 372.17 589.07 368.11 619.73 379.36
  C 670.88 398.13 710.80 446.91 722.97 499.57
  C 725.18 509.16 726.49 522.21 728.53 533.51
  Q 729.11 536.73 729.19 540.00
  C 729.59 556.47 730.48 573.56 729.11 589.73
  Q 727.63 607.07 724.82 624.26
  Q 718.36 663.83 698.15 698.42
  C 666.50 752.60 612.71 777.39 551.07 768.05
  C 499.81 760.28 473.75 717.25 471.28 668.43
  Q 471.02 663.31 469.94 657.65
  C 469.06 653.10 467.57 647.84 468.74 643.24
  Q 472.87 627.09 471.10 610.45
  Q 471.05 609.94 471.29 609.50
  Q 471.95 608.29 472.85 607.35
  Q 478.30 601.65 483.65 596.10
  A 1.29 1.28 -47.1 0 1 485.43 596.03
  C 493.50 603.22 498.30 610.89 504.15 619.75
  C 517.72 640.31 535.15 652.40 560.26 655.89
  C 565.94 656.68 569.84 656.66 575.87 655.66
  C 583.04 654.47 590.42 654.00 597.04 651.53
  C 666.09 625.86 695.16 543.36 665.88 478.01
  C 658.68 461.94 648.35 451.07 631.22 446.87
  C 608.92 441.40 582.69 459.60 568.91 475.67
  Q 552.93 494.30 541.56 516.12
  Q 534.99 528.74 528.42 541.38
  Q 522.01 553.68 518.33 558.60
  Q 506.26 574.73 487.33 582.34
  C 477.72 586.21 470.33 588.39 461.06 584.92
  Q 459.21 584.23 454.27 584.41
  C 446.41 584.70 439.24 583.69 431.79 581.16
  A 0.73 0.72 21.6 0 0 430.90 581.54
  Z"
/>
<path fill="#fffbfb" d="
  M 1361.25 421.75
  Q 1361.22 420.86 1360.52 421.42
  Q 1344.78 434.06 1332.86 449.83
  C 1328.33 455.84 1324.42 463.36 1320.33 470.21
  C 1313.86 481.06 1305.37 489.55 1297.81 499.51
  Q 1282.85 519.22 1270.10 543.77
  Q 1266.74 550.23 1259.78 556.01
  Q 1246.11 567.36 1232.29 578.53
  Q 1225.98 583.63 1219.81 592.05
  C 1215.74 597.60 1212.10 605.69 1208.18 611.17
  Q 1193.29 631.94 1174.58 649.33
  Q 1151.20 671.06 1119.72 676.83
  Q 1119.19 676.92 1118.70 676.71
  Q 1109.99 672.85 1100.52 674.39
  A 1.47 1.37 -36.2 0 1 1099.76 674.30
  Q 1079.46 665.89 1070.51 646.97
  C 1066.96 639.46 1065.48 629.30 1063.55 620.36
  Q 1063.05 618.04 1063.56 615.65
  Q 1065.77 605.15 1066.66 594.46
  Q 1067.50 584.42 1068.39 579.13
  C 1072.93 551.91 1077.70 525.12 1087.18 499.11
  Q 1089.73 492.11 1094.75 480.61
  C 1109.70 446.32 1123.54 416.20 1137.60 377.20
  C 1139.17 372.87 1141.28 367.87 1143.48 363.69
  Q 1152.46 346.67 1161.57 329.71
  C 1165.49 322.41 1171.05 317.72 1178.20 314.18
  A 1.89 1.89 0.0 0 1 1179.85 314.16
  Q 1197.09 322.31 1212.53 333.70
  Q 1226.26 343.83 1233.33 356.31
  Q 1244.98 376.84 1248.56 396.22
  Q 1252.57 417.97 1254.62 426.28
  Q 1254.74 426.77 1254.60 427.25
  C 1253.10 432.42 1251.99 437.95 1250.17 442.86
  Q 1238.44 474.61 1228.76 507.03
  C 1226.34 515.12 1223.76 520.79 1219.40 527.27
  A 0.59 0.59 0.0 0 0 1220.20 528.10
  Q 1220.56 527.88 1221.07 527.32
  Q 1267.09 475.74 1309.94 421.51
  C 1320.92 407.61 1331.01 396.81 1343.77 385.02
  C 1353.45 376.07 1363.56 367.76 1376.94 369.76
  Q 1384.60 370.91 1394.84 378.18
  C 1423.01 398.17 1440.48 434.36 1431.24 469.08
  Q 1422.64 501.39 1409.24 531.82
  A 0.37 0.37 0.0 0 0 1409.78 532.28
  C 1421.07 525.39 1431.30 518.02 1440.62 508.22
  Q 1468.38 479.06 1503.57 459.33
  Q 1507.60 457.07 1510.51 457.05
  C 1517.37 457.03 1524.80 463.16 1529.22 467.29
  Q 1539.01 476.45 1544.54 482.73
  C 1552.60 491.88 1550.91 509.30 1548.59 520.25
  C 1546.71 529.11 1542.16 539.20 1540.42 549.22
  Q 1537.82 564.14 1535.30 579.06
  Q 1534.66 582.80 1534.95 586.97
  Q 1535.47 594.66 1535.34 602.36
  C 1535.25 607.59 1538.10 608.70 1542.46 606.77
  Q 1575.49 592.14 1599.37 565.40
  C 1606.84 557.03 1611.81 551.74 1611.55 541.53
  C 1611.37 534.56 1611.86 529.95 1614.48 523.17
  Q 1620.17 508.46 1625.79 493.74
  Q 1634.93 469.82 1652.71 443.25
  Q 1679.05 403.89 1719.12 378.61
  Q 1723.81 375.65 1731.37 373.62
  C 1747.99 369.16 1765.59 364.00 1782.74 368.33
  C 1787.61 369.56 1793.12 373.06 1797.99 374.24
  Q 1801.74 375.16 1806.99 374.88
  Q 1808.17 374.82 1809.25 375.95
  Q 1814.26 381.17 1819.34 386.39
  A 2.67 2.66 -63.9 0 1 1820.07 388.54
  Q 1818.96 398.49 1823.00 407.61
  A 0.98 0.96 -41.2 0 1 1822.93 408.54
  C 1820.16 412.83 1819.03 416.31 1819.66 421.69
  Q 1820.84 431.60 1821.90 441.47
  Q 1826.23 481.78 1807.57 516.38
  Q 1801.65 527.38 1795.87 531.41
  C 1779.96 542.49 1758.31 525.50 1748.79 512.73
  C 1743.03 505.02 1751.06 487.21 1754.59 479.58
  A 0.60 0.59 81.8 0 0 1753.66 478.88
  Q 1753.33 479.18 1752.84 479.60
  Q 1752.43 479.96 1752.17 480.43
  Q 1736.12 509.66 1721.73 539.73
  C 1713.50 556.92 1706.82 574.29 1701.20 592.35
  C 1697.14 605.42 1700.10 617.67 1705.93 630.13
  C 1708.24 635.06 1710.35 639.43 1715.30 641.73
  Q 1720.74 644.27 1726.78 642.31
  Q 1737.82 638.71 1747.24 636.64
  C 1768.98 631.86 1787.77 622.88 1806.93 610.10
  Q 1851.18 580.56 1882.75 541.51
  Q 1886.63 536.71 1894.60 529.65
  C 1906.73 518.90 1917.58 508.61 1928.93 497.92
  Q 1935.50 491.73 1945.90 485.41
  A 0.69 0.68 -36.4 0 1 1946.75 485.53
  L 1959.27 498.90
  Q 1959.59 499.24 1959.60 499.70
  Q 1959.88 508.24 1956.66 514.41
  C 1948.22 530.57 1934.69 547.35 1924.17 563.96
  Q 1922.06 567.29 1914.13 581.25
  C 1885.01 632.51 1838.82 675.63 1782.63 695.38
  Q 1772.24 699.04 1760.87 696.70
  Q 1751.57 694.79 1751.54 694.78
  Q 1740.43 693.56 1730.00 697.23
  A 3.79 3.78 -49.2 0 1 1728.00 697.38
  C 1698.86 691.67 1670.17 680.89 1645.72 663.80
  C 1629.39 652.38 1618.68 637.37 1613.32 618.17
  C 1611.91 613.09 1611.65 608.96 1612.98 604.11
  A 0.67 0.67 0.0 0 0 1611.83 603.50
  C 1594.99 623.05 1573.60 640.18 1549.28 649.33
  C 1545.12 650.90 1541.83 651.75 1537.22 650.67
  Q 1530.22 649.04 1523.20 647.58
  Q 1519.20 646.76 1516.10 645.06
  Q 1487.46 629.34 1475.28 598.78
  C 1474.08 595.76 1474.82 594.45 1475.66 591.51
  Q 1477.36 585.61 1474.72 577.50
  A 1.67 1.64 -46.7 0 1 1474.70 576.59
  C 1476.64 569.49 1479.24 562.67 1480.60 555.47
  Q 1485.63 528.81 1495.61 503.65
  A 0.47 0.47 0.0 0 0 1494.89 503.11
  C 1486.54 509.61 1483.66 520.67 1477.79 528.16
  C 1471.28 536.49 1462.08 538.87 1454.03 544.67
  Q 1452.26 545.95 1444.35 552.76
  Q 1404.81 586.82 1361.23 630.97
  Q 1348.65 643.72 1329.53 647.59
  C 1303.71 652.82 1279.21 637.36 1277.58 610.24
  Q 1276.06 585.01 1285.69 559.70
  Q 1298.09 527.08 1311.17 502.90
  Q 1333.59 461.47 1360.85 423.05
  Q 1361.06 422.76 1361.14 422.43
  Q 1361.25 421.92 1361.25 421.75
  Z"
/>
<path fill="#fffbfb" d="
  M 808.25 427.91
  Q 867.56 428.16 926.88 428.06
  C 934.16 428.05 944.86 430.11 954.55 430.83
  C 971.17 432.06 995.67 443.46 996.04 463.24
  Q 996.31 478.14 996.23 482.00
  C 995.96 494.70 985.73 503.83 973.76 505.81
  Q 946.41 510.35 922.50 508.50
  C 904.21 507.09 890.25 505.90 873.25 505.86
  Q 846.15 505.79 819.04 505.91
  Q 803.51 505.98 800.05 505.08
  C 787.35 501.77 781.66 489.66 778.61 477.77
  Q 776.34 468.93 774.63 459.97
  Q 772.72 449.92 773.65 444.42
  Q 775.90 431.14 789.49 425.19
  A 1.30 1.28 -47.0 0 1 790.42 425.15
  Q 798.23 427.87 808.25 427.91
  Z"
/>
<path fill="#fffbfb" d="
  M 817.07 561.60
  C 804.33 561.29 793.63 554.39 787.88 543.23
  A 1.85 1.84 45.5 0 1 787.89 541.56
  C 795.27 527.47 807.28 525.86 822.14 523.33
  C 852.58 518.13 884.56 515.89 915.31 519.28
  Q 927.38 520.61 939.52 520.16
  Q 948.77 519.81 953.47 520.24
  Q 961.78 520.98 970.00 522.54
  C 981.53 524.72 1003.64 535.54 996.21 551.26
  C 989.94 564.50 979.42 573.47 963.75 568.21
  Q 960.12 566.99 952.57 563.63
  Q 943.96 559.80 934.51 561.10
  C 923.15 562.66 913.41 565.13 901.04 563.14
  Q 873.62 558.73 846.07 562.27
  C 842.72 562.70 836.65 564.39 832.75 564.03
  C 828.54 563.64 822.83 561.74 817.07 561.60
  Z"
/>
</svg>
